<?xml version="1.0" encoding="utf-8"?>
<svg version="1.1" xmlns:xlink="http://www.w3.org/1999/xlink" width="65px" height="65px" xmlns="http://www.w3.org/2000/svg">
  <g transform="matrix(1 0 0 1 -12 -12 )">
    <path d="M 53.3626302083333 37.1126302083334  C 53.8986545138889 36.5766059027778  54.1666666666667 35.9418402777778  54.1666666666667 35.2083333333334  L 54.1666666666667 29.7916666666667  C 54.1666666666667 29.0581597222222  53.8986545138889 28.4233940972222  53.3626302083333 27.8873697916667  C 52.8266059027778 27.3513454861111  52.1918402777778 27.0833333333333  51.4583333333333 27  L 30.21484375 27  L 38.212890625 19.0852864583333  C 38.7489149305556 18.5492621527778  39.0169270833333 17.9144965277778  39.0169270833333 17.1809895833333  C 39.0169270833333 16.4474826388889  38.7489149305556 15.8127170138889  38.212890625 15.2766927083333  L 34.3619791666667 11.42578125  C 33.8541666666667 10.91796875  33.2194010416667 10.6640625  32.4576822916667 10.6640625  C 31.6959635416667 10.6640625  31.0611979166667 10.91796875  30.5533854166667 11.42578125  L 15.234375 26.7447916666667  L 11.3834635416667 30.595703125  C 10.8756510416667 31.103515625  10.6217447916667 31.73828125  10.6217447916667 32.5  C 10.6217447916667 33.26171875  10.8756510416667 33.896484375  11.3834635416667 34.404296875  L 15.234375 38.2552083333334  L 30.5533854166667 53.57421875  C 31.0611979166667 54.08203125  31.6959635416667 54.3359375  32.4576822916667 54.3359375  C 33.2194010416667 54.3359375  33.8541666666667 54.08203125  34.3619791666667 53.57421875  L 38.212890625 49.7233072916667  C 38.720703125 49.2154947916667  38.974609375 48.5807291666666  38.974609375 47.8190104166666  C 38.974609375 47.0572916666666  38.720703125 46.4225260416666  38.212890625 45.9147135416666  L 30.5533854166667 38.2552083333334  L 51.4583333333333 37.9166666666666  C 52.1918402777778 37.9166666666666  52.8266059027778 37.6486545138889  53.3626302083333 37.1126302083334  Z M 60.6412760416667 16.1865234375  C 63.5470920138889 21.1659071180556  65 26.6037326388889  65 32.5  C 65 38.3962673611111  63.5470920138889 43.8340928819444  60.6412760416667 48.8134765625  C 57.7354600694444 53.7928602430556  53.7928602430556 57.7354600694444  48.8134765625 60.6412760416667  C 43.8340928819444 63.5470920138889  38.3962673611111 65  32.5 65  C 26.6037326388889 65  21.1659071180556 63.5470920138889  16.1865234375 60.6412760416667  C 11.2071397569444 57.7354600694444  7.26453993055556 53.7928602430556  4.35872395833333 48.8134765625  C 1.45290798611111 43.8340928819444  0 38.3962673611111  0 32.5  C 0 26.6037326388889  1.45290798611111 21.1659071180556  4.35872395833333 16.1865234375  C 7.26453993055556 11.2071397569444  11.2071397569444 7.26453993055556  16.1865234375 4.35872395833332  C 21.1659071180556 1.45290798611112  26.6037326388889 0  32.5 0  C 38.3962673611111 0  43.8340928819444 1.45290798611112  48.8134765625 4.35872395833332  C 53.7928602430556 7.26453993055556  57.7354600694444 11.2071397569444  60.6412760416667 16.1865234375  Z " fill-rule="nonzero" fill="#14ffec" stroke="none" transform="matrix(1 0 0 1 12 12 )" />
  </g>
</svg>